<svg version="1.1" viewBox="0.0 0.0 725.0 275.0" fill="none" stroke="none" stroke-linecap="square" stroke-miterlimit="10" xmlns:xlink="http://www.w3.org/1999/xlink" xmlns="http://www.w3.org/2000/svg"><clipPath id="p.0"><path d="m0 0l725.0 0l0 275.0l-725.0 0l0 -275.0z" clip-rule="nonzero"/></clipPath><g clip-path="url(#p.0)"><path fill="#000000" fill-opacity="0.0" d="m0 0l725.0 0l0 275.0l-725.0 0z" fill-rule="evenodd"/><path fill="#000000" fill-opacity="0.0" d="m157.24016 87.40551l410.51965 0l0 100.18897l-410.51965 0z" fill-rule="evenodd"/><path fill="#000000" d="m222.58391 138.0149q0 4.296875 -0.90625 7.640625q-0.890625 3.328125 -2.515625 5.796875q-1.625 2.46875 -3.953125 4.203125q-2.328125 1.71875 -5.1875 2.765625q-2.84375 1.046875 -6.1875 1.515625q-3.328125 0.46875 -7.0 0.46875l-23.078125 0l0 -44.718758l23.015625 0q5.5 0 10.21875 1.078125q4.71875 1.0625 8.1875 3.65625q3.46875 2.59375 5.4375 6.890625q1.96875 4.2968826 1.96875 10.703133zm-4.203125 0q0 -3.640625 -0.71875 -6.4375q-0.71875 -2.8125 -2.046875 -4.8750076q-1.328125 -2.0625 -3.25 -3.453125q-1.921875 -1.40625 -4.34375 -2.265625q-2.40625 -0.875 -5.234375 -1.234375q-2.828125 -0.359375 -6.015625 -0.359375l-18.9375 0l0 37.265633l18.9375 0q4.78125 0 8.75 -0.859375q3.96875 -0.859375 6.8125 -2.984375q2.859375 -2.140625 4.453125 -5.734375q1.59375 -3.59375 1.59375 -9.0625zm61.120712 20.046875q-2.734375 0.84375 -5.078125 1.453125q-2.34375 0.59375 -4.625 0.96875q-2.265625 0.375 -4.625 0.546875q-2.359375 0.1875 -5.203125 0.1875q-6.5624847 0 -11.874985 -1.59375q-5.296875 -1.59375 -9.03125 -4.5625q-3.734375 -2.984375 -5.75 -7.21875q-2.015625 -4.234375 -2.015625 -9.5q0 -5.109375 1.9375 -9.375q1.9375 -4.2656326 5.421875 -7.3281326q3.484375 -3.0625 8.328125 -4.75q4.859375 -1.6875 10.718735 -1.6875q6.078125 0 10.828125 1.625q4.75 1.625 8.0 4.65625q3.265625 3.015625 4.953125 7.3281326q1.703125 4.3125 1.703125 9.71875l0 1.015625l-47.687485 0q0.359375 4.15625 2.078125 7.515625q1.734375 3.359375 4.90625 5.703125q3.171875 2.328125 7.796875 3.59375q4.640625 1.25 10.82811 1.25q2.640625 0 5.34375 -0.359375q2.703125 -0.359375 5.171875 -0.953125q2.46875 -0.609375 4.515625 -1.375q2.0625 -0.765625 3.359375 -1.578125l0 4.71875zm-0.328125 -22.0625q-0.21875 -3.421875 -1.53125 -6.53125q-1.296875 -3.1093826 -3.890625 -5.4843826q-2.578125 -2.375 -6.5625 -3.765625q-3.984375 -1.40625 -9.5625 -1.40625q-5.2343597 0 -9.17186 1.40625q-3.9375 1.390625 -6.671875 3.75q-2.734375 2.359375 -4.296875 5.4687576q-1.5625 3.109375 -1.984375 6.5625l43.67186 0zm52.042603 -13.703133q-1.265625 -0.625 -2.921875 -1.3125q-1.65625 -0.703125 -3.796875 -1.25q-2.125 -0.5625 -4.796875 -0.9375q-2.671875 -0.375 -5.921875 -0.375q-3.9375 0 -7.015625 0.453125q-3.078125 0.453125 -5.21875 1.421875q-2.125 0.953125 -3.25 2.421875q-1.125 1.46875 -1.125 3.484375q0 1.6875 1.0625 2.9687576q1.0625 1.265625 2.859375 2.25q1.8125 0.96875 4.234375 1.765625q2.421875 0.796875 5.140625 1.5q2.71875 0.6875 5.59375 1.40625q2.890625 0.71875 5.609375 1.546875q2.71875 0.828125 5.140625 1.859375q2.421875 1.015625 4.21875 2.390625q1.8125 1.359375 2.875 3.125q1.0625 1.75 1.0625 4.0625q0 2.515625 -0.953125 4.390625q-0.9375 1.859375 -2.546875 3.21875q-1.609375 1.34375 -3.78125 2.25q-2.15625 0.890625 -4.625 1.40625q-2.453125 0.515625 -5.078125 0.71875q-2.609375 0.21875 -5.15625 0.21875q-5.8125 0 -10.5625 -0.84375q-4.734375 -0.84375 -9.03125 -2.3125l0 -4.984375q4.4375 2.640625 9.359375 3.625q4.9375 0.96875 10.375 0.96875q3.84375 0 7.09375 -0.453125q3.25 -0.453125 5.625 -1.4375q2.375 -1.0 3.6875 -2.59375q1.328125 -1.59375 1.328125 -3.90625q0 -1.859375 -1.0625 -3.25q-1.046875 -1.40625 -2.859375 -2.453125q-1.8125 -1.0625 -4.234375 -1.875q-2.421875 -0.828125 -5.125 -1.515625q-2.703125 -0.703125 -5.578125 -1.375q-2.875 -0.671875 -5.578125 -1.453125q-2.703125 -0.78125 -5.140625 -1.75q-2.421875 -0.984375 -4.234375 -2.296875q-1.796875 -1.3125 -2.859375 -3.03125q-1.046875 -1.734375 -1.046875 -4.0156326q0 -2.25 0.84375 -3.984375q0.84375 -1.75 2.328125 -3.015625q1.484375 -1.265625 3.46875 -2.125q1.984375 -0.859375 4.234375 -1.359375q2.265625 -0.515625 4.703125 -0.734375q2.453125 -0.234375 4.828125 -0.234375q2.59375 0 4.921875 0.234375q2.328125 0.21875 4.484375 0.59375q2.171875 0.375 4.234375 0.859375q2.078125 0.484375 4.1875 1.046875l0 4.6875zm61.418884 35.765633q-2.734375 0.84375 -5.078125 1.453125q-2.34375 0.59375 -4.625 0.96875q-2.265625 0.375 -4.625 0.546875q-2.359375 0.1875 -5.203125 0.1875q-6.5625 0 -11.875 -1.59375q-5.296875 -1.59375 -9.03125 -4.5625q-3.734375 -2.984375 -5.75 -7.21875q-2.015625 -4.234375 -2.015625 -9.5q0 -5.109375 1.9375 -9.375q1.9375 -4.2656326 5.421875 -7.3281326q3.484375 -3.0625 8.328125 -4.75q4.859375 -1.6875 10.71875 -1.6875q6.078125 0 10.828125 1.625q4.75 1.625 8.0 4.65625q3.265625 3.015625 4.953125 7.3281326q1.703125 4.3125 1.703125 9.71875l0 1.015625l-47.6875 0q0.359375 4.15625 2.078125 7.515625q1.734375 3.359375 4.90625 5.703125q3.171875 2.328125 7.796875 3.59375q4.640625 1.25 10.828125 1.25q2.640625 0 5.34375 -0.359375q2.703125 -0.359375 5.171875 -0.953125q2.46875 -0.609375 4.515625 -1.375q2.0625 -0.765625 3.359375 -1.578125l0 4.71875zm-0.328125 -22.0625q-0.21875 -3.421875 -1.53125 -6.53125q-1.296875 -3.1093826 -3.890625 -5.4843826q-2.578125 -2.375 -6.5625 -3.765625q-3.984375 -1.40625 -9.5625 -1.40625q-5.234375 0 -9.171875 1.40625q-3.9375 1.390625 -6.671875 3.75q-2.734375 2.359375 -4.296875 5.4687576q-1.5625 3.109375 -1.984375 6.5625l43.671875 0zm49.058228 -16.859383q-0.953125 -0.296875 -2.625 -0.640625q-1.671875 -0.34375 -4.3125 -0.34375q-3.640625 0 -6.859375 0.90625q-3.203125 0.890625 -5.953125 2.421875q-2.75 1.53125 -5.09375 3.5625q-2.34375 2.03125 -4.21875 4.3125076l0 31.046875l-4.078125 0l0 -44.718758l4.078125 0l0 9.109375q2.171875 -2.25 4.71875 -4.125q2.5625 -1.890625 5.390625 -3.234375q2.84375 -1.359375 5.9375 -2.125q3.109375 -0.765625 6.4375 -0.765625q1.140625 0 2.046875 0.046875q0.90625 0.046875 1.671875 0.140625q0.765625 0.078125 1.453125 0.171875q0.6875 0.09375 1.40625 0.234375l0 4.0l0 0z" fill-rule="nonzero"/><path fill="#000000" fill-opacity="0.0" d="m426.9992 87.40711l314.96063 0l0 100.18897l-314.96063 0z" fill-rule="evenodd"/><path fill="#000000" d="m466.20233 160.40712l-6.078125 0l-22.328125 -44.718758l4.546875 0l20.9375 41.921883l20.921875 -41.921883l4.515625 0l-22.515625 44.718758zm76.90686 -2.34375q-2.734375 0.84375 -5.078125 1.453125q-2.34375 0.59375 -4.625 0.96875q-2.265625 0.375 -4.625 0.546875q-2.359375 0.1875 -5.203125 0.1875q-6.5625 0 -11.875 -1.59375q-5.296875 -1.59375 -9.03125 -4.5625q-3.734375 -2.984375 -5.75 -7.21875q-2.015625 -4.234375 -2.015625 -9.5q0 -5.109375 1.9375 -9.375q1.9375 -4.2656326 5.421875 -7.3281326q3.484375 -3.0625 8.328125 -4.75q4.859375 -1.6875 10.71875 -1.6875q6.078125 0 10.828125 1.625q4.75 1.625 8.0 4.65625q3.265625 3.015625 4.953125 7.3281326q1.703125 4.3125 1.703125 9.71875l0 1.015625l-47.6875 0q0.359375 4.15625 2.078125 7.515625q1.734375 3.359375 4.90625 5.703125q3.171875 2.328125 7.796875 3.59375q4.640625 1.25 10.828125 1.25q2.640625 0 5.34375 -0.359375q2.703125 -0.359375 5.171875 -0.953125q2.46875 -0.609375 4.515625 -1.375q2.0625 -0.765625 3.359375 -1.578125l0 4.71875zm-0.328125 -22.0625q-0.21875 -3.421875 -1.53125 -6.53125q-1.296875 -3.1093826 -3.890625 -5.4843826q-2.578125 -2.375 -6.5625 -3.765625q-3.984375 -1.40625 -9.5625 -1.40625q-5.234375 0 -9.171875 1.40625q-3.9375 1.390625 -6.671875 3.75q-2.734375 2.359375 -4.296875 5.4687576q-1.5625 3.109375 -1.984375 6.5625l43.671875 0z" fill-rule="nonzero"/></g></svg>